ffmpeg started on 2026-01-13 at 10:52:08
Report written to "D:\Convert\FFMetrics\reports\ssim_report-6.txt"
Log level: 32
Command line:
ffmpeg -hide_banner -nostdin -r 24000/1001 -i "F:\\Convert\\files\\[DC] Make Heroine ga Oosugiru - 07_Telegram_HEVC(123).mkv" -r 24000/1001 -i "F:\\Convert\\files\\[DC] Make Heroine ga Oosugiru - 07_Telegram.mp4" -lavfi "[0:v]settb=AVTB,setpts=PTS-STARTPTS,format=pix_fmts=yuv420p10le,fps=24000/1001,scale=1920:1080:flags=lanczos:param0=3:out_range=limited:out_color_matrix=bt709:out_chroma_loc=left,setsar=1/1,setdar=(1920/1080)*(1/1),colorspace=format=yuv420p10:range=tv:primaries=bt709:trc=bt709:space=bt709:fast=0[main];[1:v]settb=AVTB,setpts=PTS-STARTPTS,format=pix_fmts=yuv420p,fps=24000/1001,scale=1920:1080:flags=lanczos:param0=3:out_range=limited:out_color_matrix=bt709:out_chroma_loc=left,setsar=1.000,setdar=1.778,colorspace=format=yuv420p:range=tv:primaries=bt709:trc=bt709:space=bt709:fast=0[ref];[main][ref]ssim=eof_action=endall:stats_file='D\\:/Convert/FFMetrics/logs/ssim_logfile-6.txt'" -f null -
Input #0, matroska,webm, from 'F:\Convert\files\[DC] Make Heroine ga Oosugiru - 07_Telegram_HEVC(123).mkv':
  Metadata:
    COMPATIBLE_BRANDS: isomiso2avc1mp41
    MAJOR_BRAND     : isom
    MINOR_VERSION   : 512
    ENCODER         : Lavf61.7.100
  Duration: 00:24:06.79, start: -0.021000, bitrate: 984 kb/s
  Stream #0:0: Video: hevc (Main 10), yuv420p10le(tv, bt709, progressive), 1920x1080 [SAR 1:1 DAR 16:9], 23.98 fps, 23.98 tbr, 1k tbn (default)
      Metadata:
        HANDLER_NAME    : VideoHandler
        VENDOR_ID       : [0][0][0][0]
        ENCODER         : Lavc61.19.100 libx265
        BPS             : 787626
        DURATION        : 00:24:06.569708333
        NUMBER_OF_FRAMES: 34683
        NUMBER_OF_BYTES : 142419522
        _STATISTICS_WRITING_APP: mkvpropedit v94.0 ('Initiate') 64-bit
        _STATISTICS_WRITING_DATE_UTC: 2026-01-12 16:47:01
        _STATISTICS_TAGS: BPS DURATION NUMBER_OF_FRAMES NUMBER_OF_BYTES
  Stream #0:1: Audio: aac (LC), 48000 Hz, stereo, fltp (default)
      Metadata:
        HANDLER_NAME    : SoundHandler
        VENDOR_ID       : [0][0][0][0]
        ENCODER         : Lavc61.19.100 aac
        BPS             : 193194
        DURATION        : 00:24:06.784000000
        NUMBER_OF_FRAMES: 67819
        NUMBER_OF_BYTES : 34938755
        _STATISTICS_WRITING_APP: mkvpropedit v94.0 ('Initiate') 64-bit
        _STATISTICS_WRITING_DATE_UTC: 2026-01-12 16:47:01
        _STATISTICS_TAGS: BPS DURATION NUMBER_OF_FRAMES NUMBER_OF_BYTES
Input #1, mov,mp4,m4a,3gp,3g2,mj2, from 'F:\Convert\files\[DC] Make Heroine ga Oosugiru - 07_Telegram.mp4':
  Metadata:
    major_brand     : isom
    minor_version   : 512
    compatible_brands: isomiso2avc1mp41
    encoder         : Lavf60.16.100
  Duration: 00:24:06.74, start: 0.000000, bitrate: 3764 kb/s
  Stream #1:0[0x1](und): Video: h264 (High) (avc1 / 0x31637661), yuv420p(tv, bt709, progressive), 1920x1080 [SAR 1:1 DAR 16:9], 3616 kb/s, 23.98 fps, 23.98 tbr, 24k tbn (default)
      Metadata:
        handler_name    : VideoHandler
        vendor_id       : [0][0][0][0]
        encoder         : Lavc60.31.102 h264_qsv
  Stream #1:1[0x2](und): Audio: aac (HE-AACv2) (mp4a / 0x6134706D), 48000 Hz, stereo, fltp, 144 kb/s (default)
      Metadata:
        handler_name    : SoundHandler
        vendor_id       : [0][0][0][0]
Stream mapping:
  Stream #0:0 (hevc) -> settb:default
  Stream #1:0 (h264) -> settb:default
  ssim:default -> Stream #0:0 (wrapped_avframe)
  Stream #0:1 -> #0:1 (aac (native) -> pcm_s16le (native))
Output #0, null, to 'pipe:':
  Metadata:
    COMPATIBLE_BRANDS: isomiso2avc1mp41
    MAJOR_BRAND     : isom
    MINOR_VERSION   : 512
    encoder         : Lavf61.7.100
  Stream #0:0: Video: wrapped_avframe, yuv420p10le(tv, bt709, progressive), 1920x1080 [SAR 1:1 DAR 16:9], q=2-31, 200 kb/s, 23.98 fps, 23.98 tbn
      Metadata:
        encoder         : Lavc61.19.100 wrapped_avframe
  Stream #0:1: Audio: pcm_s16le, 48000 Hz, stereo, s16, 1536 kb/s (default)
      Metadata:
        HANDLER_NAME    : SoundHandler
        VENDOR_ID       : [0][0][0][0]
        _STATISTICS_TAGS: BPS DURATION NUMBER_OF_FRAMES NUMBER_OF_BYTES
        BPS             : 193194
        DURATION        : 00:24:06.784000000
        NUMBER_OF_FRAMES: 67819
        NUMBER_OF_BYTES : 34938755
        _STATISTICS_WRITING_APP: mkvpropedit v94.0 ('Initiate') 64-bit
        _STATISTICS_WRITING_DATE_UTC: 2026-01-12 16:47:01
        encoder         : Lavc61.19.100 pcm_s16le
frame=   91 fps=0.0 q=-0.0 size=N/A time=00:00:03.79 bitrate=N/A speed=7.41x    frame=  273 fps=266 q=-0.0 size=N/A time=00:00:11.38 bitrate=N/A speed=11.1x    frame=  467 fps=304 q=-0.0 size=N/A time=00:00:19.47 bitrate=N/A speed=12.7x    frame=  656 fps=318 q=-0.0 size=N/A time=00:00:27.36 bitrate=N/A speed=13.3x    frame=  852 fps=331 q=-0.0 size=N/A time=00:00:35.53 bitrate=N/A speed=13.8x    frame=  992 fps=321 q=-0.0 size=N/A time=00:00:41.37 bitrate=N/A speed=13.4x    frame= 1151 fps=319 q=-0.0 size=N/A time=00:00:48.00 bitrate=N/A speed=13.3x    frame= 1310 fps=318 q=-0.0 size=N/A time=00:00:54.63 bitrate=N/A speed=13.3x    frame= 1455 fps=314 q=-0.0 size=N/A time=00:01:00.68 bitrate=N/A speed=13.1x    frame= 1605 fps=311 q=-0.0 size=N/A time=00:01:06.94 bitrate=N/A speed=  13x    frame= 1762 fps=311 q=-0.0 size=N/A time=00:01:13.49 bitrate=N/A speed=  13x    frame= 1924 fps=311 q=-0.0 size=N/A time=00:01:20.24 bitrate=N/A speed=  13x    frame= 2064 fps=308 q=-0.0 size=N/A time=00:01:26.08 bitrate=N/A speed=12.8x    frame= 2188 fps=303 q=-0.0 size=N/A time=00:01:31.25 bitrate=N/A speed=12.6x    frame= 2295 fps=297 q=-0.0 size=N/A time=00:01:35.72 bitrate=N/A speed=12.4x    frame= 2436 fps=295 q=-0.0 size=N/A time=00:01:41.60 bitrate=N/A speed=12.3x    frame= 2556 fps=292 q=-0.0 size=N/A time=00:01:46.60 bitrate=N/A speed=12.2x    frame= 2703 fps=291 q=-0.0 size=N/A time=00:01:52.73 bitrate=N/A speed=12.2x    frame= 2863 fps=293 q=-0.0 size=N/A time=00:01:59.41 bitrate=N/A speed=12.2x    frame= 3037 fps=294 q=-0.0 size=N/A time=00:02:06.66 bitrate=N/A speed=12.3x    frame= 3222 fps=298 q=-0.0 size=N/A time=00:02:14.38 bitrate=N/A speed=12.4x    frame= 3410 fps=301 q=-0.0 size=N/A time=00:02:22.22 bitrate=N/A speed=12.5x    frame= 3604 fps=304 q=-0.0 size=N/A time=00:02:30.31 bitrate=N/A speed=12.7x    frame= 3797 fps=307 q=-0.0 size=N/A time=00:02:38.36 bitrate=N/A speed=12.8x    frame= 3979 fps=309 q=-0.0 size=N/A time=00:02:45.95 bitrate=N/A speed=12.9x    frame= 4169 fps=311 q=-0.0 size=N/A time=00:02:53.88 bitrate=N/A speed=  13x    frame= 4365 fps=313 q=-0.0 size=N/A time=00:03:02.05 bitrate=N/A speed=13.1x    frame= 4522 fps=313 q=-0.0 size=N/A time=00:03:08.60 bitrate=N/A speed=  13x    frame= 4688 fps=313 q=-0.0 size=N/A time=00:03:15.52 bitrate=N/A speed=13.1x    frame= 4862 fps=314 q=-0.0 size=N/A time=00:03:22.78 bitrate=N/A speed=13.1x    frame= 5021 fps=314 q=-0.0 size=N/A time=00:03:29.41 bitrate=N/A speed=13.1x    frame= 5180 fps=314 q=-0.0 size=N/A time=00:03:36.04 bitrate=N/A speed=13.1x    frame= 5345 fps=314 q=-0.0 size=N/A time=00:03:42.93 bitrate=N/A speed=13.1x    frame= 5497 fps=313 q=-0.0 size=N/A time=00:03:49.27 bitrate=N/A speed=13.1x    frame= 5678 fps=314 q=-0.0 size=N/A time=00:03:56.81 bitrate=N/A speed=13.1x    frame= 5844 fps=315 q=-0.0 size=N/A time=00:04:03.74 bitrate=N/A speed=13.1x    frame= 6031 fps=316 q=-0.0 size=N/A time=00:04:11.54 bitrate=N/A speed=13.2x    frame= 6210 fps=317 q=-0.0 size=N/A time=00:04:19.00 bitrate=N/A speed=13.2x    frame= 6391 fps=318 q=-0.0 size=N/A time=00:04:26.55 bitrate=N/A speed=13.2x    frame= 6575 fps=319 q=-0.0 size=N/A time=00:04:34.23 bitrate=N/A speed=13.3x    frame= 6762 fps=320 q=-0.0 size=N/A time=00:04:42.03 bitrate=N/A speed=13.3x    frame= 6893 fps=318 q=-0.0 size=N/A time=00:04:47.49 bitrate=N/A speed=13.3x    frame= 7052 fps=318 q=-0.0 size=N/A time=00:04:54.12 bitrate=N/A speed=13.3x    frame= 7220 fps=318 q=-0.0 size=N/A time=00:05:01.13 bitrate=N/A speed=13.3x    frame= 7402 fps=319 q=-0.0 size=N/A time=00:05:08.72 bitrate=N/A speed=13.3x    frame= 7582 fps=319 q=-0.0 size=N/A time=00:05:16.23 bitrate=N/A speed=13.3x    frame= 7739 fps=319 q=-0.0 size=N/A time=00:05:22.78 bitrate=N/A speed=13.3x    frame= 7875 fps=318 q=-0.0 size=N/A time=00:05:28.45 bitrate=N/A speed=13.3x    frame= 8042 fps=318 q=-0.0 size=N/A time=00:05:35.41 bitrate=N/A speed=13.3x    frame= 8215 fps=318 q=-0.0 size=N/A time=00:05:42.63 bitrate=N/A speed=13.3x    frame= 8392 fps=319 q=-0.0 size=N/A time=00:05:50.01 bitrate=N/A speed=13.3x    frame= 8576 fps=320 q=-0.0 size=N/A time=00:05:57.69 bitrate=N/A speed=13.3x    frame= 8753 fps=320 q=-0.0 size=N/A time=00:06:05.07 bitrate=N/A speed=13.4x    frame= 8935 fps=321 q=-0.0 size=N/A time=00:06:12.66 bitrate=N/A speed=13.4x    frame= 9105 fps=321 q=-0.0 size=N/A time=00:06:19.75 bitrate=N/A speed=13.4x    frame= 9256 fps=320 q=-0.0 size=N/A time=00:06:26.05 bitrate=N/A speed=13.4x    frame= 9434 fps=321 q=-0.0 size=N/A time=00:06:33.47 bitrate=N/A speed=13.4x    frame= 9626 fps=322 q=-0.0 size=N/A time=00:06:41.48 bitrate=N/A speed=13.4x    frame= 9812 fps=322 q=-0.0 size=N/A time=00:06:49.24 bitrate=N/A speed=13.4x    frame= 9990 fps=323 q=-0.0 size=N/A time=00:06:56.66 bitrate=N/A speed=13.5x    frame=10156 fps=323 q=-0.0 size=N/A time=00:07:03.58 bitrate=N/A speed=13.5x    frame=10335 fps=323 q=-0.0 size=N/A time=00:07:11.05 bitrate=N/A speed=13.5x    frame=10453 fps=322 q=-0.0 size=N/A time=00:07:15.97 bitrate=N/A speed=13.4x    frame=10569 fps=320 q=-0.0 size=N/A time=00:07:20.81 bitrate=N/A speed=13.4x    frame=10737 fps=320 q=-0.0 size=N/A time=00:07:27.82 bitrate=N/A speed=13.4x    frame=10915 fps=321 q=-0.0 size=N/A time=00:07:35.24 bitrate=N/A speed=13.4x    frame=11088 fps=321 q=-0.0 size=N/A time=00:07:42.46 bitrate=N/A speed=13.4x    frame=11266 fps=321 q=-0.0 size=N/A time=00:07:49.88 bitrate=N/A speed=13.4x    frame=11437 fps=321 q=-0.0 size=N/A time=00:07:57.01 bitrate=N/A speed=13.4x    frame=11606 fps=321 q=-0.0 size=N/A time=00:08:04.06 bitrate=N/A speed=13.4x    frame=11758 fps=321 q=-0.0 size=N/A time=00:08:10.40 bitrate=N/A speed=13.4x    frame=11941 fps=321 q=-0.0 size=N/A time=00:08:18.03 bitrate=N/A speed=13.4x    frame=12120 fps=322 q=-0.0 size=N/A time=00:08:25.50 bitrate=N/A speed=13.4x    frame=12302 fps=322 q=-0.0 size=N/A time=00:08:33.09 bitrate=N/A speed=13.4x    frame=12472 fps=322 q=-0.0 size=N/A time=00:08:40.18 bitrate=N/A speed=13.4x    frame=12620 fps=322 q=-0.0 size=N/A time=00:08:46.35 bitrate=N/A speed=13.4x    frame=12742 fps=321 q=-0.0 size=N/A time=00:08:51.44 bitrate=N/A speed=13.4x    frame=12922 fps=321 q=-0.0 size=N/A time=00:08:58.95 bitrate=N/A speed=13.4x    frame=13086 fps=321 q=-0.0 size=N/A time=00:09:05.79 bitrate=N/A speed=13.4x    frame=13275 fps=322 q=-0.0 size=N/A time=00:09:13.67 bitrate=N/A speed=13.4x    frame=13457 fps=322 q=-0.0 size=N/A time=00:09:21.26 bitrate=N/A speed=13.4x    frame=13644 fps=322 q=-0.0 size=N/A time=00:09:29.06 bitrate=N/A speed=13.4x    frame=13825 fps=323 q=-0.0 size=N/A time=00:09:36.61 bitrate=N/A speed=13.5x    frame=13999 fps=323 q=-0.0 size=N/A time=00:09:43.87 bitrate=N/A speed=13.5x    frame=14172 fps=323 q=-0.0 size=N/A time=00:09:51.09 bitrate=N/A speed=13.5x    frame=14365 fps=324 q=-0.0 size=N/A time=00:09:59.14 bitrate=N/A speed=13.5x    frame=14544 fps=324 q=-0.0 size=N/A time=00:10:06.60 bitrate=N/A speed=13.5x    frame=14720 fps=324 q=-0.0 size=N/A time=00:10:13.94 bitrate=N/A speed=13.5x    frame=14910 fps=325 q=-0.0 size=N/A time=00:10:21.87 bitrate=N/A speed=13.5x    frame=15064 fps=324 q=-0.0 size=N/A time=00:10:28.29 bitrate=N/A speed=13.5x    frame=15223 fps=324 q=-0.0 size=N/A time=00:10:34.92 bitrate=N/A speed=13.5x    frame=15380 fps=324 q=-0.0 size=N/A time=00:10:41.47 bitrate=N/A speed=13.5x    frame=15543 fps=324 q=-0.0 size=N/A time=00:10:48.27 bitrate=N/A speed=13.5x    frame=15707 fps=324 q=-0.0 size=N/A time=00:10:55.11 bitrate=N/A speed=13.5x    frame=15870 fps=324 q=-0.0 size=N/A time=00:11:01.91 bitrate=N/A speed=13.5x    frame=16025 fps=324 q=-0.0 size=N/A time=00:11:08.37 bitrate=N/A speed=13.5x    frame=16207 fps=324 q=-0.0 size=N/A time=00:11:15.96 bitrate=N/A speed=13.5x    frame=16373 fps=324 q=-0.0 size=N/A time=00:11:22.89 bitrate=N/A speed=13.5x    frame=16537 fps=324 q=-0.0 size=N/A time=00:11:29.73 bitrate=N/A speed=13.5x    frame=16718 fps=324 q=-0.0 size=N/A time=00:11:37.27 bitrate=N/A speed=13.5x    frame=16903 fps=324 q=-0.0 size=N/A time=00:11:44.99 bitrate=N/A speed=13.5x    frame=17094 fps=325 q=-0.0 size=N/A time=00:11:52.96 bitrate=N/A speed=13.6x    frame=17283 fps=325 q=-0.0 size=N/A time=00:12:00.84 bitrate=N/A speed=13.6x    frame=17409 fps=324 q=-0.0 size=N/A time=00:12:06.10 bitrate=N/A speed=13.5x    frame=17603 fps=325 q=-0.0 size=N/A time=00:12:14.19 bitrate=N/A speed=13.6x    frame=17777 fps=325 q=-0.0 size=N/A time=00:12:21.44 bitrate=N/A speed=13.6x    frame=17974 fps=326 q=-0.0 size=N/A time=00:12:29.66 bitrate=N/A speed=13.6x    frame=18158 fps=326 q=-0.0 size=N/A time=00:12:37.33 bitrate=N/A speed=13.6x    frame=18335 fps=326 q=-0.0 size=N/A time=00:12:44.72 bitrate=N/A speed=13.6x    frame=18522 fps=326 q=-0.0 size=N/A time=00:12:52.52 bitrate=N/A speed=13.6x    frame=18703 fps=327 q=-0.0 size=N/A time=00:13:00.07 bitrate=N/A speed=13.6x    frame=18869 fps=327 q=-0.0 size=N/A time=00:13:06.99 bitrate=N/A speed=13.6x    frame=19024 fps=326 q=-0.0 size=N/A time=00:13:13.45 bitrate=N/A speed=13.6x    frame=19192 fps=326 q=-0.0 size=N/A time=00:13:20.46 bitrate=N/A speed=13.6x    frame=19367 fps=326 q=-0.0 size=N/A time=00:13:27.76 bitrate=N/A speed=13.6x    frame=19538 fps=326 q=-0.0 size=N/A time=00:13:34.89 bitrate=N/A speed=13.6x    frame=19706 fps=326 q=-0.0 size=N/A time=00:13:41.90 bitrate=N/A speed=13.6x    frame=19867 fps=326 q=-0.0 size=N/A time=00:13:48.61 bitrate=N/A speed=13.6x    frame=20041 fps=326 q=-0.0 size=N/A time=00:13:55.87 bitrate=N/A speed=13.6x    frame=20211 fps=326 q=-0.0 size=N/A time=00:14:02.96 bitrate=N/A speed=13.6x    frame=20388 fps=327 q=-0.0 size=N/A time=00:14:10.34 bitrate=N/A speed=13.6x    frame=20576 fps=327 q=-0.0 size=N/A time=00:14:18.19 bitrate=N/A speed=13.6x    frame=20748 fps=327 q=-0.0 size=N/A time=00:14:25.36 bitrate=N/A speed=13.6x    frame=20940 fps=327 q=-0.0 size=N/A time=00:14:33.37 bitrate=N/A speed=13.6x    frame=21120 fps=327 q=-0.0 size=N/A time=00:14:40.88 bitrate=N/A speed=13.7x    frame=21313 fps=328 q=-0.0 size=N/A time=00:14:48.92 bitrate=N/A speed=13.7x    frame=21496 fps=328 q=-0.0 size=N/A time=00:14:56.56 bitrate=N/A speed=13.7x    frame=21684 fps=328 q=-0.0 size=N/A time=00:15:04.40 bitrate=N/A speed=13.7x    frame=21866 fps=328 q=-0.0 size=N/A time=00:15:11.99 bitrate=N/A speed=13.7x    frame=22058 fps=329 q=-0.0 size=N/A time=00:15:20.00 bitrate=N/A speed=13.7x    frame=22196 fps=328 q=-0.0 size=N/A time=00:15:25.75 bitrate=N/A speed=13.7x    frame=22385 fps=329 q=-0.0 size=N/A time=00:15:33.64 bitrate=N/A speed=13.7x    frame=22562 fps=329 q=-0.0 size=N/A time=00:15:41.02 bitrate=N/A speed=13.7x    frame=22723 fps=329 q=-0.0 size=N/A time=00:15:47.73 bitrate=N/A speed=13.7x    frame=22874 fps=328 q=-0.0 size=N/A time=00:15:54.03 bitrate=N/A speed=13.7x    frame=23037 fps=328 q=-0.0 size=N/A time=00:16:00.83 bitrate=N/A speed=13.7x    frame=23200 fps=328 q=-0.0 size=N/A time=00:16:07.63 bitrate=N/A speed=13.7x    frame=23373 fps=328 q=-0.0 size=N/A time=00:16:14.84 bitrate=N/A speed=13.7x    frame=23563 fps=328 q=-0.0 size=N/A time=00:16:22.77 bitrate=N/A speed=13.7x    frame=23737 fps=329 q=-0.0 size=N/A time=00:16:30.03 bitrate=N/A speed=13.7x    frame=23910 fps=329 q=-0.0 size=N/A time=00:16:37.24 bitrate=N/A speed=13.7x    frame=24083 fps=329 q=-0.0 size=N/A time=00:16:44.46 bitrate=N/A speed=13.7x    frame=24270 fps=329 q=-0.0 size=N/A time=00:16:52.26 bitrate=N/A speed=13.7x    frame=24444 fps=329 q=-0.0 size=N/A time=00:16:59.51 bitrate=N/A speed=13.7x    frame=24602 fps=329 q=-0.0 size=N/A time=00:17:06.10 bitrate=N/A speed=13.7x    frame=24791 fps=329 q=-0.0 size=N/A time=00:17:13.99 bitrate=N/A speed=13.7x    frame=24964 fps=329 q=-0.0 size=N/A time=00:17:21.20 bitrate=N/A speed=13.7x    frame=25127 fps=329 q=-0.0 size=N/A time=00:17:28.00 bitrate=N/A speed=13.7x    frame=25305 fps=329 q=-0.0 size=N/A time=00:17:35.42 bitrate=N/A speed=13.7x    frame=25487 fps=329 q=-0.0 size=N/A time=00:17:43.02 bitrate=N/A speed=13.7x    frame=25672 fps=329 q=-0.0 size=N/A time=00:17:50.73 bitrate=N/A speed=13.7x    frame=25824 fps=329 q=-0.0 size=N/A time=00:17:57.07 bitrate=N/A speed=13.7x    frame=25995 fps=329 q=-0.0 size=N/A time=00:18:04.20 bitrate=N/A speed=13.7x    frame=26170 fps=329 q=-0.0 size=N/A time=00:18:11.50 bitrate=N/A speed=13.7x    frame=26338 fps=329 q=-0.0 size=N/A time=00:18:18.51 bitrate=N/A speed=13.7x    frame=26500 fps=329 q=-0.0 size=N/A time=00:18:25.27 bitrate=N/A speed=13.7x    frame=26661 fps=329 q=-0.0 size=N/A time=00:18:31.98 bitrate=N/A speed=13.7x    frame=26797 fps=329 q=-0.0 size=N/A time=00:18:37.65 bitrate=N/A speed=13.7x    frame=26963 fps=328 q=-0.0 size=N/A time=00:18:44.58 bitrate=N/A speed=13.7x    frame=27136 fps=329 q=-0.0 size=N/A time=00:18:51.79 bitrate=N/A speed=13.7x    frame=27321 fps=329 q=-0.0 size=N/A time=00:18:59.51 bitrate=N/A speed=13.7x    frame=27484 fps=329 q=-0.0 size=N/A time=00:19:06.31 bitrate=N/A speed=13.7x    frame=27646 fps=329 q=-0.0 size=N/A time=00:19:13.06 bitrate=N/A speed=13.7x    frame=27800 fps=328 q=-0.0 size=N/A time=00:19:19.49 bitrate=N/A speed=13.7x    frame=27976 fps=328 q=-0.0 size=N/A time=00:19:26.83 bitrate=N/A speed=13.7x    frame=28154 fps=329 q=-0.0 size=N/A time=00:19:34.25 bitrate=N/A speed=13.7x    frame=28345 fps=329 q=-0.0 size=N/A time=00:19:42.22 bitrate=N/A speed=13.7x    frame=28509 fps=329 q=-0.0 size=N/A time=00:19:49.06 bitrate=N/A speed=13.7x    frame=28670 fps=329 q=-0.0 size=N/A time=00:19:55.77 bitrate=N/A speed=13.7x    frame=28815 fps=328 q=-0.0 size=N/A time=00:20:01.82 bitrate=N/A speed=13.7x    frame=28973 fps=328 q=-0.0 size=N/A time=00:20:08.41 bitrate=N/A speed=13.7x    frame=29089 fps=328 q=-0.0 size=N/A time=00:20:13.25 bitrate=N/A speed=13.7x    frame=29258 fps=328 q=-0.0 size=N/A time=00:20:20.30 bitrate=N/A speed=13.7x    frame=29419 fps=327 q=-0.0 size=N/A time=00:20:27.01 bitrate=N/A speed=13.7x    frame=29577 fps=327 q=-0.0 size=N/A time=00:20:33.60 bitrate=N/A speed=13.7x    frame=29743 fps=327 q=-0.0 size=N/A time=00:20:40.53 bitrate=N/A speed=13.7x    frame=29912 fps=327 q=-0.0 size=N/A time=00:20:47.57 bitrate=N/A speed=13.7x    frame=30072 fps=327 q=-0.0 size=N/A time=00:20:54.25 bitrate=N/A speed=13.6x    frame=30226 fps=327 q=-0.0 size=N/A time=00:21:00.67 bitrate=N/A speed=13.6x    frame=30344 fps=327 q=-0.0 size=N/A time=00:21:05.59 bitrate=N/A speed=13.6x    frame=30524 fps=327 q=-0.0 size=N/A time=00:21:13.10 bitrate=N/A speed=13.6x    frame=30707 fps=327 q=-0.0 size=N/A time=00:21:20.73 bitrate=N/A speed=13.6x    frame=30898 fps=327 q=-0.0 size=N/A time=00:21:28.70 bitrate=N/A speed=13.6x    frame=31085 fps=327 q=-0.0 size=N/A time=00:21:36.50 bitrate=N/A speed=13.6x    frame=31246 fps=327 q=-0.0 size=N/A time=00:21:43.21 bitrate=N/A speed=13.6x    frame=31422 fps=327 q=-0.0 size=N/A time=00:21:50.55 bitrate=N/A speed=13.7x    frame=31613 fps=328 q=-0.0 size=N/A time=00:21:58.52 bitrate=N/A speed=13.7x    frame=31800 fps=328 q=-0.0 size=N/A time=00:22:06.32 bitrate=N/A speed=13.7x    frame=31970 fps=328 q=-0.0 size=N/A time=00:22:13.41 bitrate=N/A speed=13.7x    frame=32163 fps=328 q=-0.0 size=N/A time=00:22:21.46 bitrate=N/A speed=13.7x    frame=32345 fps=328 q=-0.0 size=N/A time=00:22:29.05 bitrate=N/A speed=13.7x    frame=32546 fps=328 q=-0.0 size=N/A time=00:22:37.43 bitrate=N/A speed=13.7x    frame=32656 fps=328 q=-0.0 size=N/A time=00:22:42.02 bitrate=N/A speed=13.7x    frame=32813 fps=328 q=-0.0 size=N/A time=00:22:48.57 bitrate=N/A speed=13.7x    frame=32986 fps=328 q=-0.0 size=N/A time=00:22:55.79 bitrate=N/A speed=13.7x    frame=33154 fps=328 q=-0.0 size=N/A time=00:23:02.79 bitrate=N/A speed=13.7x    frame=33322 fps=328 q=-0.0 size=N/A time=00:23:09.80 bitrate=N/A speed=13.7x    frame=33490 fps=328 q=-0.0 size=N/A time=00:23:16.81 bitrate=N/A speed=13.7x    frame=33639 fps=328 q=-0.0 size=N/A time=00:23:23.02 bitrate=N/A speed=13.7x    frame=33776 fps=327 q=-0.0 size=N/A time=00:23:28.74 bitrate=N/A speed=13.6x    frame=33895 fps=327 q=-0.0 size=N/A time=00:23:33.70 bitrate=N/A speed=13.6x    frame=34041 fps=327 q=-0.0 size=N/A time=00:23:39.79 bitrate=N/A speed=13.6x    frame=34199 fps=326 q=-0.0 size=N/A time=00:23:46.38 bitrate=N/A speed=13.6x    frame=34334 fps=326 q=-0.0 size=N/A time=00:23:52.01 bitrate=N/A speed=13.6x    frame=34465 fps=326 q=-0.0 size=N/A time=00:23:57.47 bitrate=N/A speed=13.6x    frame=34630 fps=326 q=-0.0 size=N/A time=00:24:04.35 bitrate=N/A speed=13.6x    [Parsed_ssim_16 @ 00000241e84700c0] SSIM Y:0.994167 (22.341220) U:0.993991 (22.211828) V:0.993596 (21.935225) All:0.994043 (22.249379)
[out#0/null @ 00000241dafc8a00] video:14903KiB audio:271276KiB subtitle:0KiB other streams:0KiB global headers:0KiB muxing overhead: unknown
frame=34683 fps=325 q=-0.0 Lsize=N/A time=00:24:06.57 bitrate=N/A speed=13.6x    
